<svg width="391" height="162" viewBox="0 0 391 162" fill="none" xmlns="http://www.w3.org/2000/svg">
<path d="M11.5 6C11.5 2.96243 9.03757 0.5 6 0.5C2.96243 0.5 0.5 2.96243 0.5 6H11.5ZM388.889 124.389C391.037 122.241 391.037 118.759 388.889 116.611L353.887 81.6091C351.739 79.4612 348.257 79.4612 346.109 81.6091C343.961 83.757 343.961 87.2394 346.109 89.3873L377.222 120.5L346.109 151.613C343.961 153.761 343.961 157.243 346.109 159.391C348.257 161.539 351.739 161.539 353.887 159.391L388.889 124.389ZM0.5 6V100.5H11.5V6H0.5ZM26 126H385V115H26V126ZM0.5 100.5C0.5 114.583 11.9167 126 26 126V115C17.9919 115 11.5 108.508 11.5 100.5H0.5Z" fill="#F5DEB3"/>
</svg>
