<?xml version="1.0" encoding="UTF-8" standalone="no"?>
<!DOCTYPE svg PUBLIC "-//W3C//DTD SVG 1.1//EN" "http://www.w3.org/Graphics/SVG/1.1/DTD/svg11.dtd">
<svg width="100%" height="100%" viewBox="0 0 400 400" version="1.1" xmlns="http://www.w3.org/2000/svg" xmlns:xlink="http://www.w3.org/1999/xlink" xml:space="preserve" xmlns:serif="http://www.serif.com/" style="fill-rule:evenodd;clip-rule:evenodd;stroke-linecap:round;stroke-linejoin:round;stroke-miterlimit:1.5;">
    <g>
        <g transform="matrix(2.01195,0,0,2.01195,-311.048,-275.944)">
            <circle cx="254.006" cy="236.558" r="99.406" style="fill:rgb(235,235,235);fill-opacity:0;"/>
            <path d="M254.006,137.152C308.869,137.152 353.412,181.694 353.412,236.558C353.412,291.421 308.869,335.964 254.006,335.964C199.142,335.964 154.6,291.421 154.6,236.558C154.6,181.694 199.142,137.152 254.006,137.152ZM254.006,153.554C299.817,153.554 337.01,190.747 337.01,236.558C337.01,282.369 299.817,319.562 254.006,319.562C208.195,319.562 171.002,282.369 171.002,236.558C171.002,190.747 208.195,153.554 254.006,153.554Z"/>
        </g>
        <g transform="matrix(0.624979,0,0,0.624979,75.0042,75.0042)">
            <path d="M100,100L300,300" style="fill:none;stroke:black;stroke-width:52.8px;"/>
        </g>
        <g transform="matrix(-0.624979,0,0,0.624979,324.996,75.0042)">
            <path d="M100,100L300,300" style="fill:none;stroke:black;stroke-width:52.8px;"/>
        </g>
    </g>
</svg>
