<svg width="623" height="623" viewBox="0 0 623 623" fill="none" xmlns="http://www.w3.org/2000/svg">
<path d="M311.667 622.44C394.177 622.44 473.307 589.664 531.653 531.32C589.997 472.976 622.773 393.84 622.773 311.333C622.773 228.827 589.997 149.693 531.653 91.3467C473.309 33.0027 394.173 0.226654 311.667 0.226654C229.16 0.226654 150.027 33.0027 91.68 91.3467C33.336 149.691 0.559998 228.827 0.559998 311.333C0.559998 365.943 14.9347 419.593 42.2373 466.893C69.544 514.185 108.821 553.461 156.112 580.768C203.409 608.071 257.06 622.445 311.672 622.445L311.667 622.44ZM196.339 239.987C188.703 232.086 185.807 220.741 188.714 210.148C191.615 199.554 199.896 191.273 210.49 188.372C221.083 185.466 232.427 188.362 240.328 195.997L311.667 267.33L383.006 195.997C390.907 188.362 402.251 185.466 412.844 188.372C423.438 191.273 431.719 199.554 434.62 210.148C437.527 220.742 434.631 232.085 426.995 239.987L355.662 311.325L426.995 382.664C433 388.461 436.422 396.424 436.495 404.768C436.563 413.117 433.282 421.137 427.381 427.039C421.48 432.94 413.459 436.221 405.11 436.153C396.766 436.08 388.803 432.658 383.006 426.653L311.667 355.32L240.329 426.653C232.428 434.289 221.083 437.184 210.49 434.278C199.896 431.377 191.615 423.096 188.714 412.502C185.808 401.909 188.704 390.565 196.339 382.664L267.672 311.325L196.339 239.987Z" fill="#001945"/>
</svg>
