<?xml version="1.0" encoding="UTF-8"?>
<svg style="stroke:wheat; fill:wheat;" width="700pt" height="700pt" version="1.1" viewBox="0 0 700 700" xmlns="http://www.w3.org/2000/svg">
 <path d="m466.67 93.332h-233.34c-18.562 0-36.367 7.375-49.496 20.504-13.129 13.129-20.504 30.934-20.504 49.496v186.67c0 18.566 7.375 36.371 20.504 49.496 13.129 13.129 30.934 20.504 49.496 20.504v60.336c-0.015625 6.2266 2.457 12.203 6.875 16.594 4.4141 4.3906 10.402 6.8359 16.629 6.7852 6.1484-0.003906 12.035-2.4844 16.328-6.8789l76.836-76.836h116.67c18.562 0 36.367-7.375 49.496-20.504 13.129-13.125 20.504-30.93 20.504-49.496v-186.67c0-18.562-7.375-36.367-20.504-49.496-13.129-13.129-30.934-20.504-49.496-20.504zm-87.5 239.17c0 7.7344-3.0742 15.152-8.543 20.625-5.4727 5.4688-12.891 8.543-20.625 8.543s-15.152-3.0742-20.625-8.543c-5.4688-5.4727-8.543-12.891-8.543-20.625s3.0742-15.152 8.543-20.625c5.4727-5.4688 12.891-8.543 20.625-8.543s15.152 3.0742 20.625 8.543c5.4688 5.4727 8.543 12.891 8.543 20.625zm-5.8359-145.83v70c0 8.3359-4.4453 16.039-11.664 20.207s-16.117 4.168-23.336 0-11.664-11.871-11.664-20.207v-70c0-8.3359 4.4453-16.039 11.664-20.207 7.2188-4.168 16.117-4.168 23.336 0 7.2188 4.168 11.664 11.871 11.664 20.207z"/>
</svg>
