<?xml version="1.0" encoding="UTF-8"?>
<svg width="700pt" height="700pt" version="1.1" viewBox="0 0 700 700" xmlns="http://www.w3.org/2000/svg" xmlns:xlink="http://www.w3.org/1999/xlink">
 <defs>
  
 </defs>
 <g>
  <path d="m375.2 242.48-23.52 22.961c-3.9219 3.9219-10.078 3.3594-13.441-1.1211l-58.238-77.84c-3.9219-5.0391-11.199-4.4805-14.559 0.55859l-95.203 150.64c-3.9219 6.1602 0.55859 14 7.8398 14h216.72c7.8398-19.602 20.16-36.398 35.281-49.281l-41.441-58.238c-3.3594-5.0391-9.5195-5.6016-13.441-1.6797z"/>
  <path d="m435.12 171.36c0 18.25-14.793 33.039-33.043 33.039-18.246 0-33.039-14.789-33.039-33.039 0-18.246 14.793-33.039 33.039-33.039 18.25 0 33.043 14.793 33.043 33.039"/>
  <path d="m543.76 302.4v-229.04c0-7.8398-6.1602-14.559-14.559-14.559h-430.64c-7.8398 0-14.559 6.1602-14.559 14.559v339.92c0 7.8398 6.1602 14.559 14.559 14.559h319.2c12.32 42 50.961 72.801 96.879 72.801 56 0 101.36-45.359 101.36-101.36 0.003906-45.359-30.797-84.562-72.234-96.883zm-129.92 96.883h-301.28v-311.36h402.08v210.56c-55.438 0-100.8 45.359-100.8 100.8zm136.08-7.2812c-2.2383 3.9219-6.1602 6.7188-10.641 6.7188h-11.762v45.359c0 7.2812-5.6016 12.879-12.879 12.879-7.2812 0-12.879-5.6016-12.879-12.879v-45.359h-11.762c-4.4805 0-8.3984-2.2383-10.641-6.7188-2.2383-3.9219-1.6797-8.9609 1.1211-12.32l24.641-33.039c2.2383-2.8008 5.6016-4.4805 9.5195-4.4805 3.9219 0 7.2812 1.6797 9.5195 4.4805l24.641 33.039c2.8008 3.3594 3.3594 8.3984 1.1211 12.32z"/>
  <use x="70" y="644" xlink:href="#x"/>
  <use x="90.550781" y="644" xlink:href="#c"/>
  <use x="104.359375" y="644" xlink:href="#a"/>
  <use x="123.347656" y="644" xlink:href="#l"/>
  <use x="142.242188" y="644" xlink:href="#b"/>
  <use x="155.628906" y="644" xlink:href="#a"/>
  <use x="174.617188" y="644" xlink:href="#k"/>
  <use x="204.410156" y="644" xlink:href="#j"/>
  <use x="224.453125" y="644" xlink:href="#i"/>
  <use x="252.453125" y="644" xlink:href="#h"/>
  <use x="274.121094" y="644" xlink:href="#w"/>
  <use x="283.71875" y="644" xlink:href="#g"/>
  <use x="293.316406" y="644" xlink:href="#f"/>
  <use x="309.914062" y="644" xlink:href="#a"/>
  <use x="338.652344" y="644" xlink:href="#v"/>
  <use x="361.894531" y="644" xlink:href="#a"/>
  <use x="380.882812" y="644" xlink:href="#u"/>
  <use x="397.550781" y="644" xlink:href="#g"/>
  <use x="407.148438" y="644" xlink:href="#t"/>
  <use x="427.191406" y="644" xlink:href="#e"/>
  <use x="70" y="672" xlink:href="#s"/>
  <use x="82.183594" y="672" xlink:href="#c"/>
  <use x="95.992188" y="672" xlink:href="#d"/>
  <use x="115.226562" y="672" xlink:href="#r"/>
  <use x="154.152344" y="672" xlink:href="#b"/>
  <use x="167.535156" y="672" xlink:href="#q"/>
  <use x="187.46875" y="672" xlink:href="#a"/>
  <use x="216.207031" y="672" xlink:href="#p"/>
  <use x="239.640625" y="672" xlink:href="#d"/>
  <use x="258.878906" y="672" xlink:href="#o"/>
  <use x="278.8125" y="672" xlink:href="#e"/>
  <use x="308.492188" y="672" xlink:href="#n"/>
  <use x="329.015625" y="672" xlink:href="#c"/>
  <use x="342.820312" y="672" xlink:href="#d"/>
  <use x="362.058594" y="672" xlink:href="#m"/>
  <use x="371.65625" y="672" xlink:href="#a"/>
  <use x="390.648438" y="672" xlink:href="#f"/>
  <use x="407.242188" y="672" xlink:href="#b"/>
 </g>
</svg>
