<svg width="210" height="210" viewBox="0 0 210 210" fill="none" xmlns="http://www.w3.org/2000/svg">
<path fill-rule="evenodd" clip-rule="evenodd" d="M105 210C162.99 210 210 162.99 210 105C210 47.0101 162.99 0 105 0C47.0101 0 0 47.0101 0 105C0 162.99 47.0101 210 105 210ZM137.996 102.903V79.2586L106.281 91.4561C105.744 91.6626 105.149 91.6626 104.612 91.4561L72.8988 79.2586V102.903C72.8988 102.903 86.8485 112.204 105.448 112.204C124.047 112.204 137.996 102.903 137.996 102.903ZM162.482 62.3671L156.595 64.631V84.7306C159.298 85.6918 161.245 88.2454 161.245 91.2791V101.509C161.245 102.279 160.621 102.904 159.851 102.904H148.691C147.921 102.904 147.297 102.279 147.297 101.509V91.2791C147.297 88.2476 149.244 85.6916 151.947 84.7306L151.946 66.4204L105.951 84.109H104.942L48.4114 62.367C47.2102 61.9053 47.2102 60.2047 48.4114 59.7409L104.942 38H105.951L162.482 59.7431C163.685 60.2048 163.685 61.9054 162.482 62.3671ZM61.2746 121.503H79.8736C88.846 121.503 96.1471 128.805 96.1482 137.777C96.1482 146.75 88.846 154.052 79.8736 154.052H61.2746C52.3021 154.052 45 146.75 45 137.777C45 128.805 52.3021 121.503 61.2746 121.503ZM61.2749 128.477C56.1457 128.477 51.9747 132.648 51.9747 137.777C51.9747 142.906 56.146 147.076 61.2749 147.077C66.4041 147.077 70.575 142.906 70.575 137.777C70.575 132.648 66.4041 128.477 61.2749 128.477ZM121.722 137.777C121.722 143.928 118.994 149.387 114.747 153.202V170.405C114.747 171.234 113.746 171.648 113.16 171.062L105.447 163.35L97.7345 171.063C97.1496 171.647 96.1474 171.234 96.1474 170.405V154.338C100.443 150.117 103.122 144.258 103.122 137.777C103.122 131.44 100.559 125.699 96.4338 121.502H113.79C118.595 125.327 121.722 131.167 121.722 137.777ZM149.62 154.052C158.593 154.052 165.895 146.749 165.895 137.777C165.895 128.805 158.594 121.502 149.622 121.502H123.306C126.645 126.094 128.697 131.675 128.697 137.777C128.697 143.879 126.645 149.46 123.306 154.052H149.62Z" fill="#F5DEB3"/>
</svg>
