<svg width="251" height="251" viewBox="0 0 251 251" fill="none" xmlns="http://www.w3.org/2000/svg">
<path fill-rule="evenodd" clip-rule="evenodd" d="M125.5 251C194.812 251 251 194.812 251 125.5C251 56.1883 194.812 0 125.5 0C56.1883 0 0 56.1883 0 125.5C0 194.812 56.1883 251 125.5 251ZM172.316 49.3516L198.687 76.9009C200.751 79.0615 201.904 81.9959 201.89 85.0507V183.151C201.876 189.206 199.572 195.011 195.48 199.294C191.388 203.575 185.841 205.987 180.055 206.001H70.8348C65.0445 206.001 59.4908 203.593 55.3959 199.308C51.3012 195.022 49 189.21 49 183.151V68.8507C49 62.7911 51.3011 56.9791 55.3959 52.6938C59.4908 48.4086 65.0445 46.0003 70.8348 46.0003H164.575C167.482 45.9766 170.274 47.1857 172.316 49.3516ZM98.1634 57.4512H87.2227L87.2232 75.2015C87.3107 79.6613 89.0863 83.9026 92.1577 86.9963C95.2304 90.0889 99.3492 91.7814 103.611 91.7011H147.28C151.538 91.7676 155.65 90.0712 158.72 86.9812C161.789 83.8913 163.567 79.6575 163.668 75.2015V57.4512H152.726V75.2015C152.617 76.6114 151.987 77.921 150.971 78.8552C149.953 79.7881 148.63 80.2702 147.28 80.2011H103.611C102.257 80.284 100.927 79.8057 99.9079 78.869C98.8881 77.9336 98.2618 76.6165 98.1646 75.2015L98.1634 57.4512ZM164.054 178.648C167.127 175.63 168.929 171.46 169.067 167.052V130.702C168.929 126.294 167.127 122.124 164.054 119.105C160.982 116.087 156.891 114.467 152.679 114.603H98.1647C93.9522 114.467 89.8609 116.087 86.7884 119.105C83.7159 122.123 81.9138 126.294 81.7758 130.702V167.052C81.9137 171.46 83.7157 175.63 86.7884 178.648C89.8611 181.667 93.9522 183.287 98.1647 183.152H152.679C156.891 183.287 160.982 181.667 164.054 178.648ZM98.1647 126.002H152.679C153.993 125.889 155.297 126.317 156.314 127.195C157.331 128.073 157.981 129.331 158.125 130.702V167.052C157.993 168.428 157.345 169.694 156.326 170.574C155.306 171.454 153.996 171.877 152.679 171.752H98.1647C96.8497 171.865 95.5467 171.437 94.5293 170.559C93.5119 169.681 92.8628 168.423 92.7177 167.052V130.702C92.8628 129.331 93.5119 128.073 94.5293 127.195C95.5468 126.317 96.8497 125.889 98.1647 126.002Z" fill="#001945"/>
</svg>
