<svg width="300" height="300" viewBox="0 0 300 300" fill="none" xmlns="http://www.w3.org/2000/svg">
<path fill-rule="evenodd" clip-rule="evenodd" d="M150 300C232.843 300 300 232.843 300 150C300 119.202 290.718 90.5723 274.8 66.7548L261.848 80.1785L216.485 33.1621L227.622 21.6196C204.977 7.89857 178.411 0 150 0C67.1573 0 0 67.1573 0 150C0 232.843 67.1573 300 150 300ZM250.03 92.3999L204.667 45.384L89.8657 164.395L135.203 211.411L250.03 92.3999ZM72.371 236.845C68.6552 237.781 65.3007 234.331 66.1262 230.48L77.5832 177.126L122.921 224.142L72.371 236.845Z" fill="#ffffff"/>
</svg>
