<svg width="145" height="218" viewBox="0 0 145 218" fill="none" xmlns="http://www.w3.org/2000/svg">
<path d="M26 177L26 171.5L26 171.5L26 177ZM142.889 180.889C145.037 178.741 145.037 175.259 142.889 173.111L107.887 138.109C105.739 135.961 102.257 135.961 100.109 138.109C97.9612 140.257 97.9612 143.739 100.109 145.887L131.222 177L100.109 208.113C97.9612 210.261 97.9612 213.743 100.109 215.891C102.257 218.039 105.739 218.039 107.887 215.891L142.889 180.889ZM5.99999 157L11.5 157L11.5 157L5.99999 157ZM142.889 83.8891C145.037 81.7412 145.037 78.2588 142.889 76.1109L107.887 41.1091C105.739 38.9612 102.257 38.9612 100.109 41.1091C97.9612 43.257 97.9612 46.7394 100.109 48.8873L131.222 80L100.109 111.113C97.9612 113.261 97.9612 116.743 100.109 118.891C102.257 121.039 105.739 121.039 107.887 118.891L142.889 83.8891ZM26 182.5L139 182.5L139 171.5L26 171.5L26 182.5ZM26 171.5C17.9919 171.5 11.5 165.008 11.5 157L0.499989 157C0.499982 171.083 11.9167 182.5 26 182.5L26 171.5ZM8.99999 85.5H139V74.5H8.99999V85.5ZM0.499969 -2.98399e-05L0.499989 157L11.5 157L11.5 -3.11953e-05L0.499969 -2.98399e-05Z" fill="#001945"/>
</svg>
