<svg width="373" height="612" viewBox="0 0 373 612" fill="none" xmlns="http://www.w3.org/2000/svg">
<rect width="373" height="612" fill="#1E1E1E"/>
<path fill-rule="evenodd" clip-rule="evenodd" d="M125.5 612C194.812 612 251 555.812 251 486.5C251 417.188 194.812 361 125.5 361C56.1883 361 0 417.188 0 486.5C0 555.812 56.1883 612 125.5 612ZM172.316 410.352L198.687 437.901C200.751 440.062 201.904 442.996 201.89 446.051V544.151C201.876 550.206 199.572 556.011 195.48 560.294C191.388 564.575 185.841 566.987 180.055 567.001H70.8348C65.0445 567.001 59.4908 564.593 55.3959 560.308C51.3012 556.022 49 550.21 49 544.151V429.851C49 423.791 51.3011 417.979 55.3959 413.694C59.4908 409.409 65.0445 407 70.8348 407H164.575C167.482 406.977 170.274 408.186 172.316 410.352ZM98.1634 418.451H87.2227L87.2232 436.201C87.3107 440.661 89.0863 444.903 92.1577 447.996C95.2304 451.089 99.3492 452.781 103.611 452.701H147.28C151.538 452.768 155.65 451.071 158.72 447.981C161.789 444.891 163.567 440.657 163.668 436.201V418.451H152.726V436.201C152.617 437.611 151.987 438.921 150.971 439.855C149.953 440.788 148.63 441.27 147.28 441.201H103.611C102.257 441.284 100.927 440.806 99.9079 439.869C98.8881 438.934 98.2618 437.617 98.1646 436.201L98.1634 418.451ZM164.054 539.648C167.127 536.63 168.929 532.46 169.067 528.052V491.702C168.929 487.294 167.127 483.124 164.054 480.105C160.982 477.087 156.891 475.467 152.679 475.603H98.1647C93.9522 475.467 89.8609 477.087 86.7884 480.105C83.7159 483.123 81.9138 487.294 81.7758 491.702V528.052C81.9137 532.46 83.7157 536.63 86.7884 539.648C89.8611 542.667 93.9522 544.287 98.1647 544.152H152.679C156.891 544.287 160.982 542.667 164.054 539.648ZM98.1647 487.002H152.679C153.993 486.889 155.297 487.317 156.314 488.195C157.331 489.073 157.981 490.331 158.125 491.702V528.052C157.993 529.428 157.345 530.694 156.326 531.574C155.306 532.454 153.996 532.877 152.679 532.752H98.1647C96.8497 532.865 95.5467 532.437 94.5293 531.559C93.5119 530.681 92.8628 529.423 92.7177 528.052V491.702C92.8628 490.331 93.5119 489.073 94.5293 488.195C95.5468 487.317 96.8497 486.889 98.1647 487.002Z" fill="#F3DEB5"/>
</svg>
