<svg width="210" height="210" viewBox="0 0 210 210" fill="none" xmlns="http://www.w3.org/2000/svg">
<path fill-rule="evenodd" clip-rule="evenodd" d="M105 210C162.99 210 210 162.99 210 105C210 47.0101 162.99 0 105 0C47.0101 0 0 47.0101 0 105C0 162.99 47.0101 210 105 210ZM69.2404 42.9784L172.582 98.1188C175.301 99.5709 177 102.41 177 105.5C177 108.59 175.301 111.429 172.582 112.881C154.908 122.311 112.935 144.707 85.3091 159.448L69.2404 168.022C66.3219 169.58 62.7592 169.256 60.164 167.199C57.5709 165.138 56.4351 161.738 57.2708 158.527L70.9642 105.921C71.0334 105.647 71.0334 105.353 70.9642 105.079L57.2708 52.4727C56.4351 49.2624 57.571 45.8618 60.164 43.8014C62.7592 41.7445 66.3216 41.4198 69.2404 42.9784Z" fill="#F5DEB3"/>
</svg>
