<svg width="97" height="76" viewBox="0 0 97 76" fill="none" xmlns="http://www.w3.org/2000/svg">
<path d="M96.5 38C96.5 37.1716 95.8284 36.5 95 36.5C94.1716 36.5 93.5 37.1716 93.5 38H96.5ZM0.93934 62.9393C0.353553 63.5251 0.353553 64.4749 0.93934 65.0607L10.4853 74.6066C11.0711 75.1924 12.0208 75.1924 12.6066 74.6066C13.1924 74.0208 13.1924 73.0711 12.6066 72.4853L4.12132 64L12.6066 55.5147C13.1924 54.9289 13.1924 53.9792 12.6066 53.3934C12.0208 52.8076 11.0711 52.8076 10.4853 53.3934L0.93934 62.9393ZM93.5 38V44H96.5V38H93.5ZM75 62.5H2V65.5H75V62.5ZM93.5 44C93.5 54.2173 85.2173 62.5 75 62.5V65.5C86.8741 65.5 96.5 55.8741 96.5 44H93.5Z" fill="#F5DEB3"/>
<path d="M0.5 38C0.5 38.8284 1.17157 39.5 2 39.5C2.82843 39.5 3.5 38.8284 3.5 38H0.5ZM96.0607 13.0607C96.6464 12.4749 96.6464 11.5251 96.0607 10.9393L86.5147 1.3934C85.9289 0.807612 84.9792 0.807612 84.3934 1.3934C83.8076 1.97918 83.8076 2.92893 84.3934 3.51472L92.8787 12L84.3934 20.4853C83.8076 21.0711 83.8076 22.0208 84.3934 22.6066C84.9792 23.1924 85.9289 23.1924 86.5147 22.6066L96.0607 13.0607ZM3.5 38V32H0.5V38H3.5ZM22 13.5L95 13.5V10.5L22 10.5V13.5ZM3.5 32C3.5 21.7827 11.7827 13.5 22 13.5V10.5C10.1259 10.5 0.5 20.1259 0.5 32H3.5Z" fill="#F5DEB3"/>
</svg>
