<?xml version="1.0" encoding="UTF-8"?>
<svg width="700pt" height="700pt" version="1.1" viewBox="0 0 700 700" xmlns="http://www.w3.org/2000/svg" xmlns:xlink="http://www.w3.org/1999/xlink">
 <defs>
  
 </defs>
 <g>
  <path d="m434.21 180.38c14.195 0 27.098 5.7773 36.488 15.172 9.3594 9.3906 15.137 22.262 15.137 36.457 0 14.215-5.7969 27.117-15.152 36.473-9.3086 9.3594-22.211 15.152-36.473 15.152-14.246 0-27.164-5.7773-36.488-15.121-9.3398-9.3398-15.121-22.242-15.121-36.488s5.7773-27.164 15.121-36.488l0.73828-0.6875c9.3086-8.9375 21.906-14.449 35.75-14.449zm20.227 31.398c-5.1562-5.1562-12.297-8.3516-20.227-8.3516-7.6602 0-14.598 2.9922-19.691 7.8125l-0.50391 0.55469c-5.1562 5.1562-8.3672 12.316-8.3672 20.211 0 7.8789 3.207 15.035 8.3672 20.211 5.1562 5.1562 12.316 8.3672 20.211 8.3672 7.8945 0 15.035-3.207 20.211-8.3672 5.1914-5.1406 8.3672-12.281 8.3672-20.211 0-7.9297-3.1914-15.07-8.3516-20.227zm-299.83 121.4 127.83-109.89c4.3867-3.7617 10.801-3.6289 15.035 0.066407l139.26 119.72 108.66-93.41v-104.97h-390.79zm390.79-53.188-101.1 86.906c-4.2344 3.6953-10.633 3.832-15.035 0.066406l-139.34-119.8-135.31 116.32v51.828h390.79v-135.32zm-402.3-158.32h413.82c6.3672 0 11.523 5.1562 11.523 11.523v293.65c0 6.3672-5.1562 11.523-11.523 11.523h-413.82c-6.3672 0-11.523-5.1562-11.523-11.523v-293.65c0-6.3672 5.1562-11.523 11.523-11.523zm424.05-33.566h-434.29c-9.3242 0-17.84 3.6953-24.109 9.7109l-0.50391 0.53906c-6.3164 6.3164-10.25 15.035-10.25 24.613v314.08c0 9.5938 3.9297 18.328 10.23 24.645 6.3164 6.3008 15.055 10.23 24.629 10.23h434.29c9.5742 0 18.297-3.9297 24.613-10.25 6.3164-6.3008 10.25-15.02 10.25-24.613v-314.08c0-9.5742-3.9297-18.297-10.25-24.613-6.3164-6.3164-15.035-10.25-24.613-10.25z"/>
  <use x="70" y="585.199219" xlink:href="#t"/>
  <use x="76.164062" y="585.199219" xlink:href="#c"/>
  <use x="80.308594" y="585.199219" xlink:href="#b"/>
  <use x="86.003906" y="585.199219" xlink:href="#d"/>
  <use x="91.671875" y="585.199219" xlink:href="#a"/>
  <use x="95.6875" y="585.199219" xlink:href="#b"/>
  <use x="101.386719" y="585.199219" xlink:href="#i"/>
  <use x="110.324219" y="585.199219" xlink:href="#h"/>
  <use x="116.335938" y="585.199219" xlink:href="#g"/>
  <use x="124.734375" y="585.199219" xlink:href="#f"/>
  <use x="133.488281" y="585.199219" xlink:href="#d"/>
  <use x="139.15625" y="585.199219" xlink:href="#c"/>
  <use x="143.300781" y="585.199219" xlink:href="#s"/>
  <use x="151.058594" y="585.199219" xlink:href="#d"/>
  <use x="156.726562" y="585.199219" xlink:href="#a"/>
  <use x="160.742188" y="585.199219" xlink:href="#r"/>
  <use x="70" y="593.601562" xlink:href="#q"/>
  <use x="73.65625" y="593.601562" xlink:href="#c"/>
  <use x="77.796875" y="593.601562" xlink:href="#e"/>
  <use x="83.566406" y="593.601562" xlink:href="#f"/>
  <use x="95.246094" y="593.601562" xlink:href="#a"/>
  <use x="99.261719" y="593.601562" xlink:href="#p"/>
  <use x="105.242188" y="593.601562" xlink:href="#b"/>
  <use x="113.863281" y="593.601562" xlink:href="#o"/>
  <use x="120.894531" y="593.601562" xlink:href="#e"/>
  <use x="126.664062" y="593.601562" xlink:href="#n"/>
  <use x="132.644531" y="593.601562" xlink:href="#m"/>
  <use x="141.546875" y="593.601562" xlink:href="#l"/>
  <use x="147.703125" y="593.601562" xlink:href="#c"/>
  <use x="151.847656" y="593.601562" xlink:href="#e"/>
  <use x="157.617187" y="593.601562" xlink:href="#k"/>
  <use x="160.496094" y="593.601562" xlink:href="#b"/>
  <use x="166.195312" y="593.601562" xlink:href="#j"/>
  <use x="171.175781" y="593.601562" xlink:href="#a"/>
 </g>
</svg>
