<svg width="82" height="47" viewBox="0 0 82 47" fill="none" xmlns="http://www.w3.org/2000/svg">
<path fill-rule="evenodd" clip-rule="evenodd" d="M56.2414 10.0024C54.5296 8.20487 51.7905 10.9439 53.588 12.6558C55.8135 14.9668 58.0389 17.3635 60.35 19.5889C61.3771 20.5305 62.1475 20.5305 63.089 19.5889L79.4375 3.32599C81.1494 1.52851 78.496 -1.21051 76.6985 0.586971L61.8051 15.4804L56.2414 10.0024Z" fill="black"/>
<path fill-rule="evenodd" clip-rule="evenodd" d="M51.4902 6.57587C49.5766 6.82683 47.7856 7.47841 46.1952 8.4297C42.8866 3.3594 37.164 0 30.6562 0C20.4062 0 12.0972 8.3086 12.0972 18.559C12.0972 19.6606 12.2066 20.7387 12.398 21.7895C5.5386 21.8481 0 27.4184 0 34.2895C0 41.059 5.3789 46.5595 12.102 46.7775V46.797H66.973V46.758L66.9946 46.7595C67.2565 46.7785 67.5117 46.797 67.7816 46.797C75.3597 46.797 81.5006 40.6564 81.5006 33.078C81.5037 27.1207 77.6976 22.0471 72.3798 20.1586C70.093 23.1043 66.5179 25 62.5 25C55.5964 25 50 19.4036 50 12.5C50 10.3565 50.5395 8.33897 51.4902 6.57587Z" fill="black"/>
</svg>
