<svg width="82" height="66" viewBox="0 0 82 66" fill="none" xmlns="http://www.w3.org/2000/svg">
<path fill-rule="evenodd" clip-rule="evenodd" d="M45.8026 13.852C42.445 9.10581 36.9136 6 30.6562 6C20.4062 6 12.0972 14.3086 12.0972 24.559C12.0972 25.6606 12.2066 26.7387 12.398 27.7895C5.5386 27.8481 0 33.4184 0 40.2895C0 47.059 5.3789 52.5595 12.102 52.7775V52.797H18.944L45.8026 13.852ZM26.2325 52.797H66.973V52.758L66.9946 52.7595C67.2565 52.7785 67.5117 52.797 67.7816 52.797C75.3597 52.797 81.5006 46.6564 81.5006 39.078C81.5045 31.5116 75.3637 25.3708 67.7854 25.3708C67.6218 25.3708 67.4645 25.3808 67.3056 25.3909C67.1838 25.3987 67.061 25.4065 66.9338 25.4099C66.5497 18.4498 60.9945 12.8735 54.0354 12.4828L26.2325 52.797Z" fill="black"/>
<path d="M23 62L63 4" stroke="#FC0E0E" stroke-width="8" stroke-linecap="round"/>
</svg>
