<svg width="82" height="54" viewBox="0 0 82 54" fill="none" xmlns="http://www.w3.org/2000/svg">
<path fill-rule="evenodd" clip-rule="evenodd" d="M41.6689 16.0979C42.8354 16.5645 44.2352 15.8645 44.4685 14.4647C44.5702 14.1595 44.6817 13.8585 44.8025 13.562C45.3044 14.154 45.7697 14.7777 46.1952 15.4297C48.2655 14.1914 50.6757 13.4609 53.2538 13.4609C60.5744 13.4609 66.5354 19.1911 66.9338 26.4099C67.061 26.4065 67.1838 26.3987 67.3056 26.3909C67.4645 26.3808 67.6218 26.3708 67.7854 26.3708C68.4433 26.3708 69.0905 26.4171 69.7237 26.5066C67.203 30.1885 63.0138 32.6623 58 32.6623C53.1007 32.6623 50.301 30.5626 47.968 28.4629L50.7676 28.6962C51.9341 28.9295 53.1007 27.9963 53.334 26.5965C53.5673 25.4299 52.634 24.2634 51.2342 24.0301L43.5353 23.3302C42.8354 23.3302 42.3688 23.3302 41.9021 23.7968C41.4355 24.2634 41.2022 24.73 40.9689 25.4299L40.0357 33.3622C39.8024 34.5287 40.7356 35.6952 42.1354 35.9285C43.302 36.1618 44.4685 35.2286 44.7018 33.8288L44.9351 31.9624C48.4346 35.4619 53.1007 37.3284 58 37.3284C65.0901 37.3284 71.0785 33.5509 74.1552 27.9352C78.5245 30.2287 81.5033 34.8075 81.5006 40.078C81.5006 47.6564 75.3597 53.797 67.7816 53.797C67.5117 53.797 67.2566 53.7785 66.9947 53.7595H66.9946L66.973 53.758V53.797H12.102V53.7775C5.3789 53.5595 0 48.059 0 41.2895C0 34.4184 5.5386 28.8481 12.398 28.7895C12.2066 27.7387 12.0972 26.6606 12.0972 25.559C12.0972 15.3086 20.4062 7 30.6562 7C34.6379 7 38.3256 8.25755 41.3464 10.3951C40.9055 11.3217 40.5435 12.292 40.269 13.2982C39.8024 14.4647 40.5023 15.8646 41.6689 16.0979ZM74.1552 27.9352C74.8244 26.7138 75.3559 25.4055 75.731 24.0301C76.1976 22.8636 75.4977 21.4638 74.3312 21.2305C73.1646 20.7639 71.7648 21.4638 71.5315 22.8636C71.0976 24.1653 70.4872 25.3914 69.7237 26.5066C71.3034 26.7299 72.7966 27.2221 74.1552 27.9352ZM44.8025 13.562C43.7895 12.3672 42.628 11.302 41.3464 10.3951C44.2791 4.23136 50.6988 0 58 0C62.8994 0 67.5654 1.86642 71.0649 5.36595L71.2982 3.49953C71.5315 2.09972 72.6981 1.16651 73.8646 1.39981C75.2644 1.63312 76.1976 2.79963 75.9643 3.96614L75.0311 11.8984C74.7978 12.5983 74.5645 13.0649 74.0979 13.5315C73.6313 13.7648 73.1647 13.9981 72.4648 13.9981L64.7658 13.2982C63.366 13.0649 62.4328 11.8984 62.6661 10.7319C62.8994 9.33209 64.0659 8.39888 65.2324 8.63218L68.032 8.86548C65.4657 6.76576 62.8994 4.66604 58 4.66604C51.8236 4.66604 46.8986 8.42014 44.8025 13.562Z" fill="black"/>
</svg>
