<?xml version="1.0" encoding="iso-8859-1"?>
<!-- Generator: Adobe Illustrator 19.0.0, SVG Export Plug-In . SVG Version: 6.00 Build 0)  -->
<svg version="1.1" id="Capa_1" xmlns="http://www.w3.org/2000/svg" xmlns:xlink="http://www.w3.org/1999/xlink" x="0px" y="0px"
	 viewBox="0 0 385.213 385.213" style="enable-background:new 0 0 385.213 385.213;" xml:space="preserve">
<g>
	<path id="Border_Arrow_Up" d="M183.472,3.543L3.691,183.323c-2.43,2.43-3.621,5.618-3.597,8.794c0,0.096-0.048,0.168-0.048,0.265
		v180.455c0,6.641,5.39,12.03,12.03,12.03c0.096,0,0.168-0.048,0.265-0.048c3.176,0.024,6.364-1.167,8.794-3.597l171.384-171.384
		l171.757,171.757c4.824,4.824,12.644,4.824,17.468,0c2.863-2.863,3.814-6.749,3.284-10.466v-176.99
		c0.529-3.717-0.421-7.603-3.284-10.466L201.626,3.555c-2.502-2.502-5.799-3.645-9.083-3.549
		C189.27-0.091,185.974,1.052,183.472,3.543z M360.955,197.82v145.519L201.626,184.009c-2.502-2.502-5.799-3.645-9.083-3.549
		c-3.272-0.096-6.569,1.047-9.071,3.549L24.106,343.362V197.784l168.412-168.4L360.955,197.82z"/>
	<g>
	</g>
	<g>
	</g>
	<g>
	</g>
	<g>
	</g>
	<g>
	</g>
	<g>
	</g>
</g>
<g>
</g>
<g>
</g>
<g>
</g>
<g>
</g>
<g>
</g>
<g>
</g>
<g>
</g>
<g>
</g>
<g>
</g>
<g>
</g>
<g>
</g>
<g>
</g>
<g>
</g>
<g>
</g>
<g>
</g>
</svg>
